# AST/ASF file generated using VICON BodyLanguage
# -----------------------------------------------
:version 1.10
:name VICON
:units
  mass 1.0
  length 0.45
  angle deg
:documentation
   .ast/.asf automatically generated from VICON data using
   VICON BodyBuilder and BodyLanguage model FoxedUp or BRILLIANT.MOD
:root
   order TX TY TZ RX RY RZ
   axis XYZ
   position 0 0 0  
   orientation 0 0 0 
:bonedata
  begin
     id 1 
     name lhipjoint
     direction 0.577973 -0.728611 0.367523 
     length 2.48544 
     axis 0 0 0  XYZ
  end
  begin
     id 2 
     name lfemur
     direction 0.34202 -0.939693 0  
     length 7.1921  
     axis 0 0 20  XYZ
    dof rx ry rz
    limits (-160.0 20.0)
           (-70.0 70.0)
           (-60.0 70.0)
  end
  begin
     id 3 
     name ltibia
     direction 0.34202 -0.939693 0   
     length 7.71059   
     axis 0 0 20   XYZ
    dof rx
    limits (-10.0 170.0)
  end
  begin
     id 4 
     name lfoot
     direction 0.089538 -0.246004 0.965124   
     length 2.19909   
     axis -90 7.62852e-016 20   XYZ
    dof rx rz
    limits (-45.0 90.0)
           (-70.0 20.0)
  end
  begin
     id 5 
     name ltoes
     direction 1.53544e-011 -4.21829e-011 1   
     length 1.10116   
     axis -90 7.62852e-016 20   XYZ
    dof rx
    limits (-90.0 20.0)
  end
  begin
     id 6 
     name rhipjoint
     direction -0.554414 -0.743062 0.374812   
     length 2.4371  
     axis 0 0 0  XYZ 
  end
  begin
     id 7 
     name rfemur
     direction -0.34202 -0.939693 0   
     length 7.47254   
     axis 0 0 -20   XYZ
    dof rx ry rz
    limits (-160.0 20.0)
           (-70.0 70.0)
           (-70.0 60.0)
  end
  begin
     id 8 
     name rtibia
     direction -0.34202 -0.939693 0   
     length 7.65855   
     axis 0 0 -20   XYZ
    dof rx
    limits (-10.0 170.0)
 end
 begin
     id 9 
     name rfoot
     direction -0.133779 -0.367555 0.92033   
     length 2.43006  
     axis -90 -7.62852e-016 -20   XYZ
    dof rx rz
    limits (-45.0 90.0)
           (-20.0 70.0)
  end
  begin
     id 10 
     name rtoes
     direction -1.53563e-011 -4.21889e-011 1   
     length 1.19625   
     axis -90 -7.62852e-016 -20   XYZ
    dof rx
    limits (-90.0 20.0)
  end
  begin
     id 11 
     name lowerback
     direction 0.0249066 0.998043 -0.0573585   
     length 2.08485   
     axis 0 0 0   XYZ
    dof rx ry rz
    limits (-20.0 45.0)
           (-30.0 30.0)
           (-30.0 30.0)
  end
  begin
     id 12 
     name upperback
     direction 0.0237884 0.999673 0.00943178   
     length 2.08515   
     axis 0 0 0   XYZ
    dof rx ry rz
    limits (-20.0 45.0)
           (-30.0 30.0)
           (-30.0 30.0)
  end
  begin
     id 13 
     name thorax
     direction 0.0106671 0.999301 0.0358174   
     length 2.09037   
     axis 0 0 0   XYZ
    dof rx ry rz
    limits (-20.0 45.0)
           (-30.0 30.0)
           (-30.0 30.0)
  end
  begin
     id 14 
     name lowerneck
     direction -0.0580016 0.987052 0.149546   
     length 1.84454   
     axis 0 0 0   XYZ
    dof rx ry rz
    limits (-20.0 45.0)
           (-30.0 30.0)
           (-30.0 30.0)
  end
  begin
     id 15 
     name upperneck
     direction 0.079456 0.981963 -0.171567   
     length 1.88141   
     axis 0 0 0   XYZ
    dof rx ry rz
    limits (-20.0 45.0)
           (-30.0 30.0)
           (-30.0 30.0)
  end
  begin
     id 16
     name head
     direction 0.0262167 0.9967 -0.0768276  
     length 1.89541  
     axis 0 0 0   XYZ
    dof rx ry rz
    limits (-20.0 45.0)
           (-30.0 30.0)
           (-30.0 30.0)
  end
  begin
     id 17 
     name lclavicle
     direction 0.946135 0.322134 -0.0325326  
     length 3.949  
     axis 0 0 0   XYZ
    dof ry rz
    limits (-20.0 10.0)
           (0.0 20.0)
  end
  begin
     id 18 
     name lhumerus
     direction 1 -4.48964e-011 1.94005e-028   
     length 5.10995   
     axis 180 -30 -90   XYZ
    dof rx ry rz
    limits (-60.0 90.0)
           (-90.0 90.0)
           (-90.0 90.0)
  end
  begin
     id 19
     name lradius
     direction 1 -4.48976e-011 2.87852e-027   
     length 3.21207   
     axis 180 -30 -90   XYZ
    dof rx
    limits (-10.0 170.0)
  end
  begin
     id 20
     name lwrist
     direction 1 -4.48963e-011 1.9975e-027   
     length 1.60604   
     axis 2.96054e-016 90 90   XYZ
    dof ry
    limits (-180.0 0.0)
 end
  begin
     id 21 
     name lhand
     direction 1 -4.48919e-011 4.00227e-027   
     length 0.63349   
     axis -2.5488e-015 90 90   XYZ
    dof rx rz
    limits (-90.0 90.0)
           (-45.0 45.0)
  end
  begin
     id 22 
     name lfingers
     direction 1 -4.49037e-011 7.9652e-027   
     length 0.510736   
     axis -5.0975e-015 90 90   XYZ
    dof rx
    limits (0.0 90.0)
  end
  begin
     id 23
     name lthumb
     direction 0.707107 -6.34922e-011 0.707107   
     length 0.733318   
     axis -90 45 -4.48553e-014   XYZ
    dof rx rz
    limits (-45.0 45.0)
           (-45.0 45.0)
  end
  begin
     id 24 
     name rclavicle
     direction -0.940085 0.328911 -0.0897654   
     length 3.93848  
     axis 0 0 0   XYZ 
    dof ry rz
    limits (-10.0 20.0)
           (-20.0 0.0)
  end
  begin
     id 25 
     name rhumerus
     direction -1 -4.48958e-011 3.02044e-027  
     length 5.25109   
     axis 180 30 90   XYZ
    dof rx ry rz
    limits (-90.0 60.0)
           (-90.0 90.0)
           (-90.0 90.0)
  end
  begin
     id 26 
     name rradius
     direction -1 -4.4897e-011 9.78352e-028   
     length 3.28364   
     axis 180 30 90   XYZ
    dof rx
    limits (-10.0 170.0)
  end
  begin
     id 27 
     name rwrist
     direction -1 -4.48943e-011 1.99918e-027   
     length 1.64182   
     axis 2.96054e-016 -90 -90   XYZ
    dof ry
    limits (-180.0 0.0)
  end
  begin
     id 28
     name rhand
     direction -1 -4.49024e-011 3.98478e-027   
     length 0.599745   
     axis -2.5488e-015 -90 -90   XYZ
    dof rx rz
    limits (-90.0 90.0)
           (-45.0 45.0)
  end
  begin
     id 29
     name rfingers
     direction -1 -4.48914e-011 8.00621e-027   
     length 0.48353   
     axis -5.0975e-015 -90 -90   XYZ
    dof rx
    limits (0.0 90.0)
  end
  begin
     id 30
     name rthumb
     direction -0.707107 -6.34992e-011 0.707107   
     length 0.694255   
     axis -90 -45 4.48553e-014   XYZ
    dof rx rz
    limits (-45.0 45.0)
           (-45.0 45.0)
  end
:hierarchy
  begin
    root lhipjoint rhipjoint lowerback
    lhipjoint lfemur
    lfemur ltibia
    ltibia lfoot
    lfoot ltoes
    rhipjoint rfemur
    rfemur rtibia
    rtibia rfoot
    rfoot rtoes
    lowerback upperback
    upperback thorax
    thorax lowerneck lclavicle rclavicle
    lowerneck upperneck
    upperneck head
    lclavicle lhumerus
    lhumerus lradius
    lradius lwrist
    lwrist lhand lthumb
    lhand lfingers
    rclavicle rhumerus
    rhumerus rradius
    rradius rwrist
    rwrist rhand rthumb
    rhand rfingers
  end

#!OML:ASF E:\CV Data\Top Level 1\Subject 1\Session 1\player.ASF
:FULLY-SPECIFIED
:DEGREES
304
root 2.97432 14.3097 -6.24637 39.8898 -13.3267 -17.1715
lowerback 28.0965 2.23811 11.0529
upperback 5.05273 6.50116 5.85169
thorax -9.27962 2.67578 -1.9243
lowerneck -14.262 -2.81027 -11.4855
upperneck -25.2871 -0.218669 16.1816
head -5.12812 -0.0605787 7.38222
rclavicle -1.78906e-014 -9.54166e-015
rhumerus -15.9674 -15.7762 -69.5823
rradius 109.578
rwrist -51.4045
rhand -17.3599 -1.35882
rfingers 7.12502
rthumb 8.88803 -31.1516
lclavicle -1.78906e-014 -9.54166e-015
lhumerus -54.4384 15.611 28.7352
lradius 31.0125
lwrist 17.3269
lhand -22.7712 21.4032
lfingers 7.12502
lthumb 3.66409 51.3514
rfemur -64.9859 -0.804905 42.3555
rtibia 81.1382
rfoot -40.2682 -17.5047
rtoes -20.7127
lfemur -67.8959 23.7154 -12.8211
ltibia 113.139
lfoot -15.2406 1.7881
ltoes 2.06713
305
root 2.93995 14.2812 -5.86282 39.3137 -13.1915 -16.907
lowerback 27.6219 2.43417 11.0278
upperback 4.75817 6.7094 5.68315
thorax -9.33933 2.77087 -2.14854
lowerneck -14.1469 -3.01318 -11.6222
upperneck -25.5329 -0.449128 16.283
head -5.18604 -0.168153 7.44965
rclavicle -3.65764e-014 -1.16885e-013
rhumerus -17.8171 -16.0801 -67.8115
rradius 110.238
rwrist -53.2193
rhand -15.502 -2.02383
rfingers 7.12502
rthumb 10.6805 -31.7324
lclavicle -3.65764e-014 -1.16885e-013
lhumerus -55.5419 14.6168 27.8533
lradius 31.5503
lwrist 17.2573
lhand -22.8119 22.1029
lfingers 7.12502
lthumb 3.62476 52.0518
rfemur -62.9155 -1.34489 41.6866
rtibia 81.3673
rfoot -40.8457 -18.4724
rtoes -22.1335
lfemur -71.7693 24.1648 -13.2718
ltibia 113.99
lfoot -15.7995 1.79515
ltoes 1.33276
306
root 2.90425 14.2642 -5.46582 38.6478 -13.0744 -16.5807
lowerback 27.1365 2.67041 10.9341
upperback 4.46552 6.94965 5.52205
thorax -9.39415 2.88334 -2.33367
lowerneck -13.9835 -3.249 -11.7572
upperneck -25.7464 -0.73485 16.375
head -5.23232 -0.303521 7.5111
rclavicle 2.38542e-014 4.81059e-014
rhumerus -19.6704 -16.3964 -65.9463
rradius 110.789
rwrist -55.8735
rhand -13.5212 -2.85764
rfingers 7.12502
rthumb 12.5908 -32.4582
lclavicle 2.38542e-014 4.81059e-014
lhumerus -56.5015 13.3767 27.4149
lradius 32.5205
lwrist 17.992
lhand -22.7463 22.704
lfingers 7.12502
lthumb 3.68806 52.6518
rfemur -60.6096 -2.02395 40.9754
rtibia 81.3918
rfoot -41.2976 -19.3008
rtoes -23.3977
lfemur -75.4005 24.3617 -13.7579
ltibia 114.256
lfoot -16.2146 1.88444
ltoes 0.475417
307
root 2.86814 14.2608 -5.05455 37.9213 -12.9935 -16.2294
lowerback 26.6261 2.95292 10.7801
upperback 4.17685 7.23032 5.36818
thorax -9.43268 3.01786 -2.48541
lowerneck -13.7818 -3.51462 -11.867
upperneck -25.9214 -1.07618 16.4447
head -5.2641 -0.468189 7.55722
rclavicle 4.21423e-014 -1.59028e-014
rhumerus -21.508 -16.7122 -64.0283
rradius 111.181
rwrist -58.9975
rhand -11.3396 -3.83082
rfingers 7.12502
rthumb 14.6934 -33.2901
lclavicle 4.21423e-014 -1.59028e-014
lhumerus -57.3771 11.8872 27.4155
lradius 34.0011
lwrist 19.6838
lhand -22.6744 23.2039
lfingers 7.12502
lthumb 3.7575 53.1505
rfemur -58.0588 -2.8107 40.2215
rtibia 81.1497
rfoot -41.5763 -19.9834
rtoes -24.5808
lfemur -78.7238 24.3618 -14.2313
ltibia 113.93
lfoot -16.5144 2.05091
ltoes -0.480283
308
root 2.83045 14.2736 -4.62692 37.1337 -12.918 -15.8437
lowerback 26.075 3.26403 10.5733
upperback 3.89304 7.53057 5.22558
thorax -9.44816 3.16555 -2.59505
lowerneck -13.5368 -3.80441 -11.9561
upperneck -26.0555 -1.46383 16.5021
head -5.28237 -0.65791 7.59241
rclavicle -5.56597e-015 -8.0309e-014
rhumerus -23.3241 -16.9691 -62.1129
rradius 111.386
rwrist -62.2002
rhand -9.28101 -4.84553
rfingers 7.12502
rthumb 16.6759 -34.1492
lclavicle -5.56597e-015 -8.0309e-014
lhumerus -58.2369 10.1323 27.8425
lradius 36.0618
lwrist 22.3649
lhand -22.7418 23.5909
lfingers 7.12502
lthumb 3.69246 53.5387
rfemur -55.2411 -3.71814 39.4127
rtibia 80.5908
rfoot -41.6927 -20.4875
rtoes -25.6623
lfemur -81.6507 24.1735 -14.6423
ltibia 113.007
lfoot -16.7398 2.27381
ltoes -1.61963
309
root 2.79106 14.3002 -4.18356 36.2984 -12.8315 -15.4271
lowerback 25.4715 3.59439 10.3212
upperback 3.61042 7.84069 5.09508
thorax -9.43929 3.3221 -2.66119
lowerneck -13.2565 -4.11479 -12.0243
upperneck -26.1225 -1.89359 16.5509
head -5.2781 -0.870264 7.6164
rclavicle 1.51076e-014 -5.40694e-014
rhumerus -25.1064 -17.1252 -60.2609
rradius 111.345
rwrist -65.0397
rhand -7.39428 -5.74106
rfingers 7.12502
rthumb 18.4916 -34.8822
lclavicle 1.51076e-014 -5.40694e-014
lhumerus -59.1384 8.14375 28.6337
lradius 38.7289
lwrist 25.9531
lhand -23.0956 23.8082
lfingers 7.12502
lthumb 3.3508 53.7616
rfemur -52.1829 -4.72671 38.5362
rtibia 79.7033
rfoot -41.6232 -20.7955
rtoes -26.6836
lfemur -84.1639 23.8363 -14.972
ltibia 111.531
lfoot -16.9044 2.51343
ltoes -2.75039
310
root 2.74997 14.3369 -3.72556 35.4242 -12.7093 -14.9795
lowerback 24.8074 3.93166 10.0346
upperback 3.32343 8.14908 4.97934
thorax -9.40869 3.4818 -2.68228
lowerneck -12.9383 -4.44115 -12.0835
upperneck -26.1148 -2.35666 16.6023
head -5.25005 -1.10052 7.63503
rclavicle -2.62396e-014 3.97569e-015
rhumerus -26.8445 -17.126 -58.5305
rradius 111.033
rwrist -67.201
rhand -5.36777 -6.48249
rfingers 7.12502
rthumb 20.44 -35.4266
lclavicle -2.62396e-014 3.97569e-015
lhumerus -60.1214 5.96372 29.7178
lradius 41.9794
lwrist 30.2241
lhand -23.7923 23.8148
lfingers 7.12502
lthumb 2.67794 53.7778
rfemur -48.9152 -5.81286 37.5792
rtibia 78.4948
rfoot -41.3428 -20.8823
rtoes -27.668
lfemur -86.2675 23.3721 -15.2121
ltibia 109.561
lfoot -16.9904 2.74125
ltoes -3.9066
311
root 2.70709 14.3825 -3.2523 34.4779 -12.5206 -14.4968
lowerback 24.1133 4.25354 9.73479
upperback 3.03494 8.43717 4.8796
thorax -9.36842 3.63432 -2.66536
lowerneck -12.5621 -4.7812 -12.143
upperneck -26.0255 -2.84912 16.6719
head -5.19885 -1.34761 7.65543
rclavicle -7.79236e-014 -2.62396e-014
rhumerus -28.5403 -16.9149 -56.9757
rradius 110.468
rwrist -68.5749
rhand -3.32235 -7.00369
rfingers 7.12502
rthumb 22.4046 -35.7244
lclavicle -7.79236e-014 -2.62396e-014
lhumerus -61.2071 3.64101 31.0173
lradius 45.7247
lwrist 34.804
lhand -24.7866 23.4865
lfingers 7.12502
lthumb 1.71772 53.4593
rfemur -45.4116 -6.97144 36.5266
rtibia 76.9698
rfoot -40.8171 -20.7427
rtoes -28.6918
lfemur -87.9104 22.7871 -15.3474
ltibia 107.14
lfoot -16.9872 2.93219
ltoes -5.08954
312
root 2.66141 14.4347 -2.76433 33.413 -12.2406 -13.977
lowerback 23.4298 4.54903 9.4246
upperback 2.75864 8.69554 4.80309
thorax -9.32652 3.77462 -2.60502
lowerneck -12.1163 -5.12602 -12.2185
upperneck -25.8618 -3.35578 16.771
head -5.13008 -1.60378 7.68539
rclavicle -2.06736e-014 -1.66979e-014
rhumerus -30.1984 -16.4725 -55.6224
rradius 109.689
rwrist -69.2067
rhand -1.18858 -7.27944
rfingers 7.12502
rthumb 24.4514 -35.7389
lclavicle -2.06736e-014 -1.66979e-014
lhumerus -62.3812 1.23733 32.473
lradius 49.8382
lwrist 39.1857
lhand -25.8794 22.786
lfingers 7.12502
lthumb 0.662243 52.7648
rfemur -41.6288 -8.16765 35.3614
rtibia 75.1403
rfoot -40.0174 -20.3476
rtoes -29.7402
lfemur -89.0481 22.1025 -15.3729
ltibia 104.318
lfoot -16.9113 3.04319
ltoes -6.39937
313
root 2.61382 14.4919 -2.26133 32.2075 -11.8541 -13.4452
lowerback 22.7839 4.80497 9.13649
upperback 2.50707 8.91657 4.75434
thorax -9.28038 3.89785 -2.51474
lowerneck -11.5896 -5.46943 -12.2904
upperneck -25.6523 -3.87175 16.8833
head -5.05689 -1.86852 7.71806
rclavicle 7.95139e-015 -2.06736e-014
rhumerus -31.8099 -15.79 -54.4985
rradius 108.758
rwrist -69.3397
rhand 0.675037 -7.29831
rfingers 7.12502
rthumb 26.2368 -35.5046
lclavicle 7.95139e-015 -2.06736e-014
lhumerus -63.6374 -1.17352 34.0563
lradius 54.1587
lwrist 42.8196
lhand -26.8519 21.735
lfingers 7.12502
lthumb -0.277001 51.7146
rfemur -37.5407 -9.34643 34.0843
rtibia 73.0224
rfoot -38.8792 -19.6667
rtoes -30.8388
lfemur -89.6615 21.3361 -15.2812
ltibia 101.145
lfoot -16.7648 3.04472
ltoes -7.68239
314
root 2.56339 14.552 -1.74323 30.8486 -11.3317 -12.9115
lowerback 22.1715 5.01215 8.87915
upperback 2.29428 9.08805 4.74338
thorax -9.21378 3.99914 -2.38514
lowerneck -10.9855 -5.80248 -12.3621
upperneck -25.4146 -4.3826 17.0088
head -4.98674 -2.13442 7.75592
rclavicle 1.66979e-014 6.12257e-014
rhumerus -33.3779 -14.8932 -53.6046
rradius 107.744
rwrist -69.2726
rhand 2.35638 -7.19125
rfingers 7.12502
rthumb 27.8454 -35.1477
lclavicle 1.66979e-014 6.12257e-014
lhumerus -64.9639 -3.55525 35.7907
lradius 58.5432
lwrist 45.2156
lhand -27.5958 20.3632
lfingers 7.12502
lthumb -0.995506 50.3407
rfemur -33.1406 -10.4404 32.7117
rtibia 70.6442
rfoot -37.3614 -18.6659
rtoes -31.9647
lfemur -89.7663 20.4903 -15.0866
ltibia 97.6657
lfoot -16.5787 2.93061
ltoes -9.01095
315
root 2.5127 14.6108 -1.21209 29.3991 -10.7125 -12.4382
lowerback 21.5523 5.18887 8.68025
upperback 2.12157 9.23396 4.77011
thorax -9.09724 4.09032 -2.23417
lowerneck -10.3264 -6.1207 -12.4374
upperneck -25.1625 -4.87835 17.149
head -4.92209 -2.39567 7.80118
rclavicle 0 4.45278e-014
rhumerus -34.8943 -13.8178 -52.9314
rradius 106.707
rwrist -69.2685
rhand 3.64418 -7.02077
rfingers 7.12502
rthumb 29.0759 -34.7714
lclavicle 0 4.45278e-014
lhumerus -66.3511 -5.85226 37.6862
lradius 62.8765
lwrist 46.0708
lhand -28.0756 18.8938
lfingers 7.12502
lthumb -1.45892 48.8686
rfemur -28.5339 -11.299 31.292
rtibia 68.0628
rfoot -35.3471 -17.3167
rtoes -33.0651
lfemur -89.4767 19.6218 -14.8213
ltibia 93.9354
lfoot -16.318 2.70957
ltoes -10.2438
316
root 2.46238 14.6665 -0.669792 27.9069 -9.9956 -12.0627
lowerback 20.8966 5.33613 8.56205
upperback 1.98736 9.35659 4.83938
thorax -8.91358 4.17257 -2.06643
lowerneck -9.64048 -6.42198 -12.5214
upperneck -24.9073 -5.35169 17.3071
head -4.86293 -2.64753 7.85627
rclavicle 1.03368e-014 1.74931e-014
rhumerus -36.3426 -12.6073 -52.4677
rradius 105.688
rwrist -69.487
rhand 4.50718 -6.87385
rfingers 7.12502
rthumb 29.8998 -34.4792
lclavicle 1.03368e-014 1.74931e-014
lhumerus -67.804 -8.01965 39.7493
lradius 67.089
lwrist 45.3017
lhand -28.3422 17.5107
lfingers 7.12502
lthumb -1.71645 47.4835
rfemur -23.8238 -11.8115 29.9142
rtibia 65.333
rfoot -32.7394 -15.6114
rtoes -34.0169
lfemur -88.8818 18.7489 -14.5073
ltibia 89.9802
lfoot -15.9312 2.42468
ltoes -11.3191
317
root 2.41297 14.7197 -0.119703 26.4105 -9.17065 -11.8144
lowerback 20.2146 5.44758 8.54277
upperback 1.88253 9.45266 4.95723
thorax -8.67693 4.24246 -1.88633
lowerneck -8.97508 -6.70566 -12.6344
upperneck -24.6388 -5.79375 17.5028
head -4.79784 -2.88328 7.92977
rclavicle 5.56597e-014 -1.27222e-014
rhumerus -37.7054 -11.2982 -52.2004
rradius 104.714
rwrist -69.9437
rhand 4.73819 -6.77183
rfingers 7.12502
rthumb 30.1202 -34.3373
lclavicle 5.56597e-014 -1.27222e-014
lhumerus -69.329 -10.0014 41.9577
lradius 71.1279
lwrist 43.0399
lhand -28.4936 16.296
lfingers 7.12502
lthumb -1.8626 46.2676
rfemur -19.1282 -11.8908 28.6964
rtibia 62.5063
rfoot -29.3802 -13.5948
rtoes -34.6571
lfemur -88.047 17.8783 -14.1612
ltibia 85.8047
lfoot -15.3311 2.1212
ltoes -12.2284
